<svg width="180" height="180" viewBox="0 0 180 180" fill="none" xmlns="http://www.w3.org/2000/svg">
<g clip-path="url(#clip0_3_10)">
<g clip-path="url(#clip1_3_10)">
<path d="M180 90C180 139.706 139.706 180 90 180C40.2944 180 0 139.706 0 90C0 40.2944 40.2944 0 90 0C139.706 0 180 40.2944 180 90Z" fill="#2C3E50"/>
<path d="M123.291 46.7578L108.741 130.43H89.6484L104.083 46.7578H123.291ZM164.18 46.7578L130.652 89.8006L111.272 110.489L110.812 90.4327L123.176 72.503L139.508 46.7578H164.18ZM126.396 130.43L117.943 91.9843L134.16 80.9506L148.422 130.43H126.396Z" fill="white"/>
<path d="M49.556 130.425H33.4937L36.3723 114.91L50.1893 115.025C54.2576 115.063 57.4048 114.105 59.6309 112.152C61.857 110.198 63.4882 107.669 64.5244 104.566C65.5991 101.463 66.3859 98.207 66.8848 94.7975L68.6695 82.0405C68.9766 80.1634 69.2069 78.1139 69.3604 75.8919C69.5523 73.67 69.4947 71.563 69.1877 69.5709C68.8806 67.5405 68.0938 65.8741 66.8273 64.5716C65.5991 63.2307 63.6609 62.5029 61.0126 62.3879L45.0655 62.3305L47.7713 46.7578L61.7035 46.8153C66.6546 46.9302 70.934 47.9646 74.5418 49.9183C78.1879 51.8338 81.1049 54.4388 83.2926 57.7334C85.5186 61.028 87.0347 64.7631 87.8407 68.9388C88.685 73.1145 88.8194 77.5009 88.2437 82.098L86.4014 94.9124C85.7105 99.8543 84.4056 104.49 82.4866 108.819C80.5675 113.148 78.0536 116.94 74.9448 120.196C71.8359 123.453 68.1514 126 63.8912 127.839C59.6309 129.64 54.8525 130.502 49.556 130.425ZM59.3431 46.7578L44.7776 130.425H25.6641L40.1144 46.7578H59.3431Z" fill="white"/>
</g>
</g>
<defs>
<clipPath id="clip0_3_10">
<rect width="180" height="180" fill="white"/>
</clipPath>
<clipPath id="clip1_3_10">
<rect width="180" height="180" fill="white"/>
</clipPath>
</defs>
</svg>
